<?xml version="1.0" encoding="UTF-8" standalone="no"?>
<!-- Created with Inkscape (http://www.inkscape.org/) -->

<svg
   width="118.60813mm"
   height="118.60813mm"
   viewBox="0 0 118.60813 118.60813"
   version="1.1"
   id="svg5"
   xml:space="preserve"
   inkscape:version="1.2.2 (732a01da63, 2022-12-09, custom)"
   sodipodi:docname="logo_circle.svg"
   xmlns:inkscape="http://www.inkscape.org/namespaces/inkscape"
   xmlns:sodipodi="http://sodipodi.sourceforge.net/DTD/sodipodi-0.dtd"
   xmlns="http://www.w3.org/2000/svg"
   xmlns:svg="http://www.w3.org/2000/svg"><sodipodi:namedview
     id="namedview7"
     pagecolor="#ffffff"
     bordercolor="#999999"
     borderopacity="1"
     inkscape:showpageshadow="0"
     inkscape:pageopacity="0"
     inkscape:pagecheckerboard="0"
     inkscape:deskcolor="#d1d1d1"
     inkscape:document-units="mm"
     showgrid="false"
     showguides="true"
     inkscape:zoom="0.85430522"
     inkscape:cx="168.55802"
     inkscape:cy="220.64714"
     inkscape:window-width="1320"
     inkscape:window-height="704"
     inkscape:window-x="0"
     inkscape:window-y="0"
     inkscape:window-maximized="1"
     inkscape:current-layer="layer1"><sodipodi:guide
       position="59.175758,62.61619"
       orientation="1,0"
       id="guide5169"
       inkscape:locked="false" /><sodipodi:guide
       position="77.061187,69.004758"
       orientation="0,-1"
       id="guide10858"
       inkscape:locked="false" /><sodipodi:guide
       position="78.414117,72.777788"
       orientation="0,-1"
       id="guide10860"
       inkscape:locked="false" /><sodipodi:guide
       position="58.172628,76.550815"
       orientation="0,1"
       id="guide10862"
       inkscape:locked="false"
       inkscape:label=""
       inkscape:color="rgb(0,134,229)" /><sodipodi:guide
       position="62.174638,80.323845"
       orientation="0,1"
       id="guide10864"
       inkscape:locked="false"
       inkscape:label=""
       inkscape:color="rgb(0,134,229)" /><sodipodi:guide
       position="-103.64891,30.487004"
       orientation="0,-1"
       id="guide16266"
       inkscape:locked="false" /></sodipodi:namedview><defs
     id="defs2" /><g
     inkscape:label="Layer 1"
     inkscape:groupmode="layer"
     id="layer1"
     transform="translate(-47.811962,-64.564861)"><circle
       style="fill:#000000;stroke-width:0.34329"
       id="path1870"
       cx="107.11603"
       cy="123.86893"
       r="59.304066" /><g
       id="g14473"><path
         style="fill:#ff0000;fill-opacity:0;stroke:#ff0d0d;stroke-width:0.4;stroke-dasharray:none;stroke-opacity:0.996609"
         d="m 108.10672,92.117 24.749,50.80793"
         id="path310"
         sodipodi:nodetypes="cc" /><path
         style="fill:#ff0000;fill-opacity:0;stroke:#ff0d0d;stroke-width:0.4;stroke-dasharray:none;stroke-opacity:0.996609"
         d="M 105.80476,92.117218 81.409658,142.23507"
         id="path310-3"
         sodipodi:nodetypes="cc" /><path
         style="fill:#ff0000;fill-opacity:0;stroke:#ff0d0d;stroke-width:0.4;stroke-dasharray:none;stroke-opacity:0.996609"
         d="M 99.840734,138.387 83.07366,144.53271"
         id="path5171"
         sodipodi:nodetypes="cc" /><path
         style="fill:#ff0000;fill-opacity:0;stroke:#ff0d0d;stroke-width:0.4;stroke-dasharray:none;stroke-opacity:0.996609"
         d="m 99.825756,138.387 7.161964,-15.20979 7.41007,15.20979 16.58257,6.14704"
         id="path5173"
         sodipodi:nodetypes="cccc" /><path
         style="fill:#ff0000;fill-opacity:0;stroke:#ff0d0d;stroke-width:0.4;stroke-dasharray:none;stroke-opacity:0.996609"
         d="m 130.98036,144.53404 c 1.98674,-0.16122 1.93585,-1.55165 1.87536,-1.60911"
         id="path5175"
         sodipodi:nodetypes="cc" /><path
         style="fill:#ff0000;fill-opacity:0;stroke:#ff0d0d;stroke-width:0.4;stroke-dasharray:none;stroke-opacity:0.996609"
         d="m 105.80476,92.117 c 0.99523,-1.011031 2.29616,-0.08396 2.30196,0"
         id="path5177"
         sodipodi:nodetypes="cc" /><path
         style="fill:#ff0000;fill-opacity:0;stroke:#ff0d0d;stroke-width:0.4;stroke-dasharray:none;stroke-opacity:0.996609"
         d="m 83.07366,144.53271 c -1.854126,-0.0154 -1.789262,-2.15554 -1.664002,-2.29764"
         id="path5179"
         sodipodi:nodetypes="cc" /></g><g
       id="g16099"
       transform="translate(-105.35153,25.84948)"><path
         style="fill:#ffffff;fill-opacity:0;stroke:#ffffff;stroke-width:0.4;stroke-dasharray:none;stroke-opacity:0.996609"
         d="m 213.45825,66.267523 24.749,50.807927"
         id="path310-5"
         sodipodi:nodetypes="cc" /><path
         style="fill:#ffffff;fill-opacity:0;stroke:#ffffff;stroke-width:0.4;stroke-dasharray:none;stroke-opacity:0.996609"
         d="m 211.15629,66.267741 -24.3951,50.117849"
         id="path310-3-6"
         sodipodi:nodetypes="cc" /><path
         style="fill:#ffffff;fill-opacity:0;stroke:#ffffff;stroke-width:0.4;stroke-dasharray:none;stroke-opacity:0.996609"
         d="m 205.19226,112.53752 -16.76707,6.14571"
         id="path5171-2"
         sodipodi:nodetypes="cc" /><path
         style="fill:#ffffff;fill-opacity:0;stroke:#ffffff;stroke-width:0.4;stroke-dasharray:none;stroke-opacity:0.996609"
         d="m 205.17729,112.53752 7.16196,-15.209787 7.41007,15.209787 16.58257,6.14704"
         id="path5173-9"
         sodipodi:nodetypes="cccc" /><path
         style="fill:#ffffff;fill-opacity:0;stroke:#ffffff;stroke-width:0.4;stroke-dasharray:none;stroke-opacity:0.996609"
         d="m 236.33189,118.68456 c 1.98674,-0.16122 1.93585,-1.55165 1.87536,-1.60911"
         id="path5175-1"
         sodipodi:nodetypes="cc" /><path
         style="fill:#ffffff;fill-opacity:0;stroke:#ffffff;stroke-width:0.4;stroke-dasharray:none;stroke-opacity:0.996609"
         d="m 211.15629,66.267523 c 0.99523,-1.011031 2.29616,-0.08396 2.30196,0"
         id="path5177-2"
         sodipodi:nodetypes="cc" /><path
         style="fill:#ffffff;fill-opacity:0;stroke:#ffffff;stroke-width:0.4;stroke-dasharray:none;stroke-opacity:0.996609"
         d="m 188.42519,118.68323 c -1.85413,-0.0154 -1.78926,-2.15554 -1.664,-2.29764"
         id="path5179-7"
         sodipodi:nodetypes="cc" /><path
         style="fill:#ffffff;fill-opacity:1;stroke:#ffffff;stroke-width:0.893409;stroke-dasharray:none;stroke-opacity:0.996609"
         d="m 1167.8714,232.81399 c -0.7129,-0.4993 -1.6017,-1.92794 -1.9753,-3.17477 l -0.6792,-2.26696 46.1226,-94.77564 c 31.5827,-64.898024 46.5815,-95.122832 47.5781,-95.876964 1.2436,-0.941095 1.7524,-1.003293 3.497,-0.427527 2.0105,0.663531 2.7462,2.120052 48.3199,95.653751 25.4531,52.23898 46.5691,95.73405 46.9244,96.65572 0.578,1.49964 0.4722,1.82524 -1.0072,3.09828 -0.9093,0.78239 -2.2389,1.56675 -2.9548,1.74301 -0.8386,0.20648 -12.1277,-3.68008 -31.7357,-10.92577 -16.7387,-6.18543 -30.791,-11.44942 -31.2273,-11.69774 -0.4363,-0.24832 -7.0845,-13.37413 -14.7738,-29.16846 -7.6893,-15.79432 -14.2393,-28.8223 -14.5555,-28.95104 -0.3162,-0.12874 -6.6464,12.66346 -14.067,28.42713 -7.4207,15.76366 -13.8102,28.96006 -14.1989,29.32534 -0.7663,0.72005 -62.0566,23.26945 -63.2474,23.26945 -0.3981,0 -1.3071,-0.40851 -2.0199,-0.90781 z"
         id="path15308"
         transform="matrix(0.26458333,0,0,0.26458333,-121.37832,56.568424)" /><path
         style="fill:#ffffff;fill-opacity:0;stroke:#ffffff;stroke-width:0.4;stroke-dasharray:none;stroke-opacity:0.996609"
         d="m 212.97428,66.443813 c 0.0657,-0.01697 0.12962,-0.04325 0.19704,-0.05091 0.0103,-0.0012 0.01,0.01797 0.0153,0.02678 0.006,0.01031 0.0127,0.0204 0.0191,0.03059 0.0441,0.07069 0.0826,0.150593 0.11858,0.225721 0.0551,0.115129 0.11936,0.225825 0.18746,0.332844 0.0217,0.03414 0.0343,0.07519 0.0536,0.110947 0.0371,0.06901 0.0724,0.137145 0.1071,0.206593 0.0396,0.07921 0.10827,0.146759 0.16449,0.214201 0.042,0.05042 0.11436,0.157889 0.11822,0.156147 0.0544,-0.02463 0.10737,-0.0523 0.16102,-0.07845"
         id="path15999" /><path
         style="fill:#ffffff;fill-opacity:0;stroke:#ffffff;stroke-width:0.4;stroke-dasharray:none;stroke-opacity:0.996609"
         d="m 213.95517,67.696726 c 0.0185,0.10363 0.0587,0.173581 0.10941,0.260011 0.0818,0.139579 0.15642,0.282619 0.23336,0.424662 0.0565,0.104302 0.11422,0.204613 0.15304,0.317541 0.0311,0.09054 0.0555,0.183181 0.0727,0.275629 0.0114,0.06086 0.0396,0.11818 0.0529,0.178221 0.004,0.02007 0.003,0.04126 0.008,0.06121 0.0183,0.07324 0.062,0.14695 0.0957,0.214245 0.0557,0.111492 0.14105,0.200871 0.21042,0.302237 0.0592,0.08649 0.11973,0.172759 0.18363,0.256328 0.0334,0.04366 0.0249,0.01964 0.0574,0.07269 0.1,0.163594 0.15714,0.347492 0.24845,0.516079 0.073,0.134736 0.16314,0.260503 0.23571,0.39356 0.0164,0.02997 0.0259,0.07643 0.0343,0.110144 0,0.0012 0,0.0025 0,0.0037 0.004,0.0081 0.008,0.01613 0.0111,0.02444 0.003,0.0057 -0.006,0.02081 0,0.01825 0.0446,-0.02064 0.0883,-0.043 0.13243,-0.0645"
         id="path16001" /><path
         style="fill:#ffffff;fill-opacity:0;stroke:#ffffff;stroke-width:0.4;stroke-dasharray:none;stroke-opacity:0.996609"
         d="m 213.45823,66.267523 c -0.009,0.01141 -0.0124,0.03178 -0.0266,0.03423 -0.004,6.88e-4 -0.12094,-0.03937 -0.13007,-0.04208 -0.0995,-0.02948 -0.20436,-0.03191 -0.30607,-0.04208 -0.0667,-0.0067 -0.14232,-0.0209 -0.20587,-0.04208 -0.037,-0.01234 -0.0675,-0.03538 -0.10292,-0.04954 -0.05,-0.02 -0.10994,-0.03987 -0.16317,-0.0496 -0.0251,-0.0046 -0.0641,0 -0.0877,0 -0.14832,0 -0.29233,0.03061 -0.43997,0.03061 -0.15566,0 -0.27191,0.0069 -0.42405,0.04196 -0.0412,0.0095 -0.0723,0.03458 -0.11041,0.04948 -0.0282,0.01103 -0.0667,0.01248 -0.0918,0.03365 -0.0336,0.02847 -0.004,0.107485 -0.0127,0.1454 -0.0214,0.09071 -0.023,0.18152 -0.023,0.275457 0,0.03018 0.008,0.07362 0,0.103139 -0.009,0.03342 -0.1125,0.14213 -0.13859,0.168225 -0.0298,0.02981 -0.0603,0.05953 -0.0877,0.09148 -0.0262,0.03053 -0.13557,0.215858 -0.14038,0.245802 -0.004,0.0222 -0.0222,0.03072 -0.0303,0.04948 -0.0183,0.04239 -0.0276,0.08692 -0.0448,0.127784 -0.0159,0.03733 -0.0542,0.06938 -0.0752,0.103853 -0.022,0.03617 -0.0546,0.06915 -0.08,0.102816 -0.006,0.0078 -0.0272,0.02536 -0.0272,0.03581 0,0.0032 0,0.01289 0,0.0097 0,-0.0098 0,-0.01959 0,-0.02938"
         id="path16003" /><path
         style="fill:#ffffff;fill-opacity:0;stroke:#ffffff;stroke-width:0.4;stroke-dasharray:none;stroke-opacity:0.996609"
         d="m 210.58232,67.896738 c -0.052,0.13814 -0.10586,0.27562 -0.15608,0.414421 -0.10131,0.279881 -0.18039,0.574822 -0.32946,0.835677 -0.0496,0.08687 -0.12065,0.167979 -0.17981,0.248676 -0.0212,0.02899 -0.0524,0.05098 -0.0727,0.08034 -0.0495,0.07167 -0.0906,0.154631 -0.12954,0.232607 -0.0926,0.185261 -0.16713,0.373861 -0.22955,0.570042 -0.0325,0.102163 -0.005,0.0056 -0.0344,0.06887 -0.0238,0.05039 -0.0376,0.104957 -0.0574,0.156857 -0.0153,0.04017 -0.0383,0.07655 -0.0574,0.114774 -0.0492,0.09829 -0.10115,0.197294 -0.14536,0.298374 -0.0281,0.06422 -0.067,0.121254 -0.0918,0.187463 -0.0326,0.08689 -0.0855,0.163322 -0.12626,0.244827 -0.0143,0.02839 -0.0206,0.06583 -0.0302,0.09469 -0.004,0.01103 -0.0214,0.01991 -0.0267,0.03051 -0.009,0.0177 -0.005,0.02891 -0.0188,0.04534 -0.006,0.0074 -0.147,0.14362 -0.13004,0.152343 0.0389,0.02002 0.0784,0.03902 0.11758,0.05853"
         id="path16005" /><path
         style="fill:#ffffff;fill-opacity:0;stroke:#ffffff;stroke-width:0.4;stroke-dasharray:none;stroke-opacity:0.996609"
         d="m 208.76683,71.672549 c -0.0329,0.117162 -0.12044,0.208565 -0.16717,0.319216 -0.0233,0.05516 -0.0257,0.08791 -0.0421,0.141554 -0.0228,0.07435 -0.0541,0.141547 -0.0804,0.214244 -0.0254,0.06995 -0.0379,0.144925 -0.065,0.214244 -0.0172,0.04408 -0.0409,0.08727 -0.0612,0.130077 -0.0383,0.08092 -0.10004,0.139409 -0.1451,0.213605 -0.0491,0.08087 -0.0932,0.166074 -0.14067,0.248025 -0.0803,0.138667 -0.15008,0.284003 -0.21807,0.428488 -0.0122,0.02567 -0.0317,0.04134 -0.0421,0.06886 -0.0233,0.06211 -0.0417,0.134693 -0.0765,0.191289 -0.0478,0.07766 -0.10943,0.146721 -0.15684,0.225722 -0.0725,0.120891 0.0228,-0.04019 -0.0268,0.06504 -0.0406,0.08622 -0.0827,0.174211 -0.11861,0.26398 -0.0204,0.05107 -0.0366,0.107665 -0.0612,0.156786 -0.0159,0.03164 -0.04,0.06081 -0.056,0.09279 -0.0583,0.116528 -0.11557,0.233142 -0.16449,0.351972 -0.0257,0.06231 -0.0599,0.122732 -0.088,0.183619 -0.0209,0.04511 0.007,0.0087 -0.019,0.05339 -0.0217,0.03706 -0.0106,3.8e-5 -0.0268,0.04209 -0.0311,0.08086 -0.067,0.159355 -0.0988,0.239807 -0.0169,0.04312 -0.0259,0.08945 -0.0419,0.133285 -0.0119,0.03283 -0.0238,0.06885 -0.0375,0.100383 -0.003,0.0036 -0.0444,0.05824 -0.0311,0.06498 0.0164,0.0083 0.0331,0.01628 0.0496,0.02441"
         id="path16007" /><path
         style="fill:#ffffff;fill-opacity:0;stroke:#ffffff;stroke-width:0.4;stroke-dasharray:none;stroke-opacity:0.996609"
         d="m 202.97452,113.3504 c 0.0241,-0.0546 0.0324,-0.11939 0.0722,-0.16377 0.0225,-0.0249 0.065,-0.0167 0.0974,-0.0251 0.10332,-0.0265 0.2141,-0.0544 0.30895,-0.10577 0.0666,-0.0361 0.006,-0.009 0.0696,-0.0418 0.12861,-0.0671 0.269,-0.11317 0.40357,-0.167 0.0452,-0.0181 0.0882,-0.0412 0.13361,-0.0584 0.072,-0.0274 0.14385,-0.0484 0.21431,-0.0807 0.16378,-0.0751 0.30859,-0.18995 0.4608,-0.28509 0.049,-0.0306 0.0979,-0.0621 0.14753,-0.0918 0.079,-0.0474 0.18365,-0.089 0.23934,-0.16699 0.0939,-0.13141 0.13029,-0.29895 0.18093,-0.4509 0.0114,-0.0342 0.0299,-0.0662 0.0418,-0.1002 0.009,-0.0262 0.0148,-0.0571 0.0273,-0.0822 0.0366,-0.0726 0.0828,-0.14337 0.12473,-0.21327 0.0403,-0.0671 0.0846,-0.13307 0.1197,-0.20319 0.0138,-0.0274 0.0238,-0.0566 0.0389,-0.0835 0.0291,-0.0517 0.0625,-0.10269 0.0891,-0.15586 0.0294,-0.0589 0.0521,-0.12146 0.083,-0.17992 0.0301,-0.0568 0.10584,-0.17937 0.11634,-0.23968 0.003,-0.0197 0,-0.04 0,-0.0601"
         id="path16065" /><path
         style="fill:#ffffff;fill-opacity:0;stroke:#ffffff;stroke-width:0.4;stroke-dasharray:none;stroke-opacity:0.996609"
         d="m 206.0381,109.96544 c 0.007,0.0564 0.003,0.11429 -0.003,0.17056 -0.007,0.0562 -0.01,0.11075 -0.014,0.167 -0.003,0.026 -0.0159,0.0494 -0.0196,0.0752 -0.003,0.024 0.003,0.0457 -0.006,0.0695 -0.008,0.0285 -0.008,0.0611 -0.008,0.0908 0,0.0155 0,0.0277 -0.005,0.0417 -0.003,0.005 0.003,0.0221 0,0.0167 -0.013,-0.0472 -0.0257,-0.0945 -0.0387,-0.14169"
         id="path16067" /><path
         style="fill:#ffffff;fill-opacity:0;stroke:#ffffff;stroke-width:0.4;stroke-dasharray:none;stroke-opacity:0.996609"
         d="m 189.37284,118.00572 c -0.0153,0.0447 -0.0114,0.10213 -0.0462,0.13399 -0.13473,0.12302 -0.34316,0.20985 -0.52604,0.2505 -0.0478,0.0106 -0.0976,0.009 -0.14476,0.0195 -0.0837,0.0182 -0.16867,0.0375 -0.25326,0.0529 -0.0547,0.01 -0.10832,0.008 -0.16399,0.008 -0.0297,0 -0.0594,0 -0.0892,0 -0.01,0 -0.0328,0.008 -0.0285,0 0.0108,-0.0215 0.023,-0.0424 0.0346,-0.0636"
         id="path16069" /><path
         style="fill:#ffffff;fill-opacity:0;stroke:#ffffff;stroke-width:0.4;stroke-dasharray:none;stroke-opacity:0.996609"
         d="m 187.62098,118.16712 c 0.007,0.0361 0.0492,0.0855 0.0204,0.10822 -0.0124,0.01 -0.17391,-0.13267 -0.19206,-0.15308 -0.0654,-0.0735 -0.0992,-0.12302 -0.13883,-0.21352 -0.0428,-0.0977 -0.0494,-0.17636 -0.12219,-0.26369 -0.0292,-0.035 -0.066,-0.0631 -0.10538,-0.086 -0.043,-0.025 -0.13073,-0.0494 -0.1502,-0.10293 -0.0122,-0.0337 0.005,-0.20459 0,-0.25852 -0.0148,-0.15475 -0.0249,-0.31103 -0.0411,-0.4657 -0.006,-0.0522 -0.0309,-0.10114 -0.0361,-0.15251 -0.003,-0.0254 0,-0.0523 0,-0.0778 0,-0.0192 0.004,-0.11804 -0.0119,-0.11814 -0.0275,-1.9e-4 -0.0549,0.002 -0.0824,0.002"
         id="path16071" /><path
         style="fill:#ffffff;fill-opacity:0;stroke:#ffffff;stroke-width:0.4;stroke-dasharray:none;stroke-opacity:0.996609"
         d="m 219.96143,112.61615 c 0.004,-0.042 0.0119,-0.0838 0.0124,-0.12595 0,-0.0516 -0.0246,-0.10867 -0.0363,-0.15839 -0.0429,-0.18117 -0.10094,-0.36897 -0.18809,-0.53457 -0.0362,-0.0688 -0.0862,-0.13219 -0.12703,-0.19848 -0.0496,-0.0806 -0.0904,-0.16433 -0.12869,-0.25078 -0.0336,-0.076 -0.0978,-0.18783 -0.11549,-0.26729 -0.004,-0.0173 -0.003,-0.0354 -0.007,-0.0528 -0.004,-0.0188 -0.0172,-0.0451 -0.023,-0.0627 -0.0435,-0.13036 -0.0958,-0.25251 -0.16831,-0.36958 -0.0307,-0.0496 -0.0763,-0.0895 -0.11549,-0.132 -0.0723,-0.0786 -0.14028,-0.16112 -0.21119,-0.24088 -0.0326,-0.0367 -0.0669,-0.0685 -0.0957,-0.1089 -0.0132,-0.0187 -0.0278,-0.13519 -0.0389,-0.16628 -0.0273,-0.0763 -0.0612,-0.14944 -0.0924,-0.22439 -0.0204,-0.0491 -0.0585,-0.0874 -0.0823,-0.13495 -0.0127,-0.0254 -0.0222,-0.0529 -0.033,-0.0792 -0.0276,-0.0669 -0.0468,-0.13588 -0.0789,-0.20032 -0.0143,-0.0285 -0.0135,-0.0629 -0.0294,-0.0906 -0.008,-0.0139 -0.12131,-0.12547 -0.0947,-0.14009 0.0274,-0.0151 0.056,-0.028 0.084,-0.042"
         id="path16073" /><path
         style="fill:#ffffff;fill-opacity:0;stroke:#ffffff;stroke-width:0.4;stroke-dasharray:none;stroke-opacity:0.996609"
         d="m 225.48164,113.53441 c -0.71445,-0.22965 -0.12086,-0.0495 -1.8343,-0.31413"
         id="path16075" /><path
         style="fill:#ffffff;fill-opacity:0;stroke:#ffffff;stroke-width:0.4;stroke-dasharray:none;stroke-opacity:0.996609"
         d="m 237.46653,116.27383 c 0.0413,-0.002 0.0836,-0.0134 0.12409,-0.005 0.0279,0.006 0.14726,0.13406 0.16499,0.15179 0.0373,0.0373 0.0666,0.0806 0.10229,0.11879 0.0259,0.0276 0.0575,0.0504 0.0825,0.0792 0.0934,0.10775 0.1651,0.23915 0.1914,0.37948 0.009,0.0492 0.0122,0.15256 0.003,0.20129 -0.0354,0.19455 -0.20912,0.4916 -0.35967,0.61706 -0.073,0.0608 -0.14862,0.12225 -0.22723,0.17465 -0.0153,0.0102 -0.0354,0.0188 -0.0493,0.0296 -0.0686,0.0535 -0.13187,0.11066 -0.20936,0.15294 -0.0315,0.0172 -0.0711,0.0236 -0.10512,0.033 -0.0533,0.0146 -0.10409,0.0433 -0.15793,0.0552 -0.0464,0.0103 -0.0963,-0.003 -0.14362,0.01 -0.073,0.0201 -0.14668,0.0338 -0.22108,0.0495 -0.0744,0.0157 -0.14912,0.0401 -0.22392,0.0527 -0.0575,0.01 -0.39034,0.0128 -0.4481,0 -0.0893,-0.0198 -0.20225,-0.071 -0.28048,-0.11879 -0.0135,-0.008 -0.0251,-0.0198 -0.0396,-0.0264 -0.0225,-0.0103 -0.0701,-0.0114 -0.0919,-0.0157 -0.0662,-0.0132 -0.13568,-0.0242 -0.20082,-0.0428 -0.0912,-0.0261 -0.18315,-0.0541 -0.2758,-0.0755 -0.0593,-0.0137 -0.12018,-0.0198 -0.1782,-0.0363 -0.054,-0.0154 -0.10144,-0.0475 -0.15097,-0.0723 -0.0831,-0.0415 -0.17132,-0.0743 -0.25334,-0.11852 -0.049,-0.0264 -0.0971,-0.0487 -0.14751,-0.0722 -0.0479,-0.0224 -0.0889,-0.0686 -0.13843,-0.0857 -0.0428,-0.0148 -0.0923,-0.0138 -0.13597,-0.0257 -0.0257,-0.007 -0.0499,-0.0219 -0.0754,-0.0296 -0.0489,-0.0147 -0.10311,-0.021 -0.15113,-0.0395 -0.0268,-0.0103 -0.0494,-0.0323 -0.0759,-0.0429 -0.0392,-0.0157 -0.0792,-0.0341 -0.11866,-0.0495 -0.0372,-0.0145 -0.0705,-0.0354 -0.10793,-0.0492 -0.0591,-0.0217 -0.12887,-0.0398 -0.17256,-0.0897 -0.007,-0.009 -0.10702,-0.12388 -0.1066,-0.12551 0.003,-0.0113 0.008,-0.022 0.0116,-0.033"
         id="path16077" /></g><path
       id="path5233-6-7-5"
       style="fill:#000000;fill-opacity:1;stroke:#000000;stroke-width:0.4;stroke-dasharray:none;stroke-opacity:0.996609"
       d="m 123.18782,103.04879 a 13.509316,13.509316 0 0 0 -13.50925,13.50925 13.509316,13.509316 0 0 0 13.50925,13.50925 13.509316,13.509316 0 0 0 13.50925,-13.50925 13.509316,13.509316 0 0 0 -13.50925,-13.50925 z" /><path
       id="path5233-6-7"
       style="fill:#ec4e20;fill-opacity:1;stroke:#ec4e20;stroke-width:0.4;stroke-dasharray:none;stroke-opacity:1"
       d="m 123.35422,106.82478 a 9.5669918,9.5669918 0 0 0 -9.56738,9.56738 9.5669918,9.5669918 0 0 0 9.56738,9.56685 9.5669918,9.5669918 0 0 0 9.56686,-9.56685 9.5669918,9.5669918 0 0 0 -9.56686,-9.56738 z" /><circle
       style="fill:#000000;fill-opacity:0.991973;stroke:#000000;stroke-width:0.4;stroke-dasharray:none;stroke-opacity:0.996609"
       id="path5233-6"
       cy="116.526"
       cx="123.21963"
       r="5.9331899" /><circle
       style="fill:#ffffff;fill-opacity:1;stroke:#ffffff;stroke-width:0.4;stroke-dasharray:none;stroke-opacity:1"
       id="path5233"
       cx="123.21963"
       cy="116.52607"
       r="2.1578383" /><g
       aria-label="SOURCE LAMBDA"
       transform="scale(1.0072765,0.99277607)"
       id="text6340"
       style="font-size:7.21764px;font-family:aakar;-inkscape-font-specification:aakar;text-align:center;text-anchor:middle;fill:#ec4e20;stroke:#ff0d0d;stroke-width:0;stroke-opacity:0.996609"><path
         id="path293"
         style="fill:#ffffff;stroke-opacity:0.8711"
         d="m 73.488639,151.96432 c -0.634362,0 -1.120735,0.14124 -1.459061,0.42318 -0.338326,0.28194 -0.507388,0.68472 -0.507388,1.20866 0,0.41821 0.12123,0.75063 0.363226,0.99733 0.244347,0.24669 0.629574,0.42649 1.15586,0.53926 l 0.524831,0.1166 c 0.319529,0.0705 0.532483,0.15016 0.638211,0.23944 0.108075,0.0893 0.162117,0.21604 0.162117,0.3805 0,0.18326 -0.07909,0.32451 -0.236507,0.42319 -0.157416,0.0987 -0.383732,0.14783 -0.679766,0.14783 -0.291337,0 -0.594773,-0.0445 -0.909605,-0.13378 -0.312481,-0.0916 -0.63673,-0.22692 -0.972707,-0.40548 v 1.14567 c 0.335977,0.12449 0.67213,0.21814 1.008106,0.2816 0.335977,0.0635 0.670888,0.0953 1.004516,0.0953 0.707195,0 1.231981,-0.14073 1.575006,-0.42267 0.345374,-0.28428 0.518161,-0.71682 0.518161,-1.29714 0,-0.44171 -0.1232,-0.78215 -0.369895,-1.02179 -0.246698,-0.23965 -0.662671,-0.41867 -1.247692,-0.53614 l -0.577674,-0.11608 c -0.274889,-0.0564 -0.465277,-0.12339 -0.571003,-0.20092 -0.103378,-0.0799 -0.154936,-0.19009 -0.154936,-0.33106 0,-0.18796 0.07734,-0.32662 0.232403,-0.4159 0.155066,-0.0893 0.394527,-0.13429 0.718757,-0.13429 0.244347,0 0.503891,0.0331 0.778782,0.0989 0.274889,0.0658 0.557001,0.16331 0.845988,0.29253 v -1.1134 -5.2e-4 c -0.326579,-0.087 -0.642648,-0.15137 -0.948082,-0.19363 -0.305432,-0.0447 -0.602661,-0.0672 -0.891648,-0.0672 z" /><path
         d="m 79.268511,152.94785 q -0.620266,0 -0.962117,0.45815 -0.341851,0.45815 -0.341851,1.28987 0,0.82819 0.341851,1.28635 0.341851,0.45815 0.962117,0.45815 0.623791,0 0.965642,-0.45815 0.341851,-0.45816 0.341851,-1.28635 0,-0.83172 -0.341851,-1.28987 -0.341851,-0.45815 -0.965642,-0.45815 z m 0,-0.98327 q 1.268726,0 1.987671,0.726 0.718944,0.72599 0.718944,2.00529 0,1.27577 -0.718944,2.00177 -0.718945,0.72599 -1.987671,0.72599 -1.265201,0 -1.98767,-0.72599 -0.718945,-0.726 -0.718945,-2.00177 0,-1.2793 0.718945,-2.00529 0.722469,-0.726 1.98767,-0.726 z"
         style="fill:#ffffff;stroke-opacity:0.8711"
         id="path295" /><path
         d="m 83.00068,152.05974 h 1.356831 v 3.15419 q 0,0.65199 0.211455,0.93393 0.214978,0.27841 0.697799,0.27841 0.486345,0 0.697799,-0.27841 0.214979,-0.28194 0.214979,-0.93393 v -3.15419 h 1.356831 v 3.15419 q 0,1.11719 -0.560354,1.66344 -0.560353,0.54626 -1.709255,0.54626 -1.145378,0 -1.705731,-0.54626 -0.560354,-0.54625 -0.560354,-1.66344 z"
         style="fill:#ffffff;stroke-opacity:0.8711"
         id="path297" /><path
         d="m 90.789247,154.39278 q 0.426433,0 0.609694,-0.15859 0.186784,-0.15859 0.186784,-0.52158 0,-0.35948 -0.186784,-0.51454 Q 91.21568,153.043 90.789247,153.043 h -0.570926 v 1.34978 z m -0.570926,0.93745 v 1.9912 h -1.356832 v -5.26169 h 2.072252 q 1.03965,0 1.522471,0.3489 0.486345,0.3489 0.486345,1.10308 0,0.52159 -0.253745,0.85639 -0.250221,0.33481 -0.757711,0.4934 0.278414,0.0634 0.496917,0.28899 0.222027,0.22202 0.447578,0.67665 l 0.736566,1.49428 h -1.444938 l -0.641411,-1.3075 q -0.193833,-0.39471 -0.394715,-0.5392 -0.197357,-0.1445 -0.528635,-0.1445 z"
         style="fill:#ffffff;stroke-opacity:0.8711"
         id="path299" /><path
         d="m 98.591909,157.03244 q -0.373569,0.19383 -0.778856,0.29251 -0.405288,0.0987 -0.845818,0.0987 -1.314541,0 -2.082824,-0.73304 -0.768284,-0.73657 -0.768284,-1.99472 0,-1.26168 0.768284,-1.99472 0.768283,-0.73657 2.082824,-0.73657 0.44053,0 0.845818,0.0987 0.405287,0.0987 0.778856,0.29251 v 1.08899 q -0.377093,-0.25727 -0.743614,-0.37709 -0.366521,-0.11982 -0.771808,-0.11982 -0.725993,0 -1.141853,0.4652 -0.415861,0.4652 -0.415861,1.28282 0,0.8141 0.415861,1.2793 0.41586,0.4652 1.141853,0.4652 0.405287,0 0.771808,-0.11983 0.366521,-0.11982 0.743614,-0.37709 z"
         style="fill:#ffffff;stroke-opacity:0.8711"
         id="path301" /><path
         d="m 99.716141,152.05974 h 3.661679 v 1.02555 h -2.30485 v 0.97974 h 2.16741 v 1.02555 h -2.16741 v 1.20529 h 2.38239 v 1.02556 h -3.739219 z"
         style="fill:#ffffff;stroke-opacity:0.8711"
         id="path303" /><path
         d="m 107.15933,152.05974 h 1.35683 v 4.23613 h 2.38239 v 1.02556 h -3.73922 z"
         style="font-weight:bold;font-family:'Open Sans';-inkscape-font-specification:'Open Sans Bold'"
         id="path305" /><path
         d="m 114.95143,156.36283 h -2.1216 l -0.3348,0.9586 h -1.36388 l 1.9489,-5.26169 h 1.61763 l 1.9489,5.26169 h -1.36388 z m -1.78327,-0.97621 h 1.44141 l -0.71894,-2.0934 z"
         style="font-weight:bold;font-family:'Open Sans';-inkscape-font-specification:'Open Sans Bold'"
         id="path307" /><path
         id="path309"
         style="font-weight:bold;font-family:'Open Sans';-inkscape-font-specification:'Open Sans Bold'"
         d="m 117.3446,152.05957 v 5.26199 h 1.28617 v -3.84876 l 1.21229,2.83738 h 0.85985 l 1.21229,-2.83738 v 3.84876 h 1.28309 v -5.26199 h -1.72327 l -1.20563,2.81604 -1.19792,-2.81604 z" /><path
         d="m 126.63427,154.09675 q 0.32071,0 0.48635,-0.14097 0.16564,-0.14097 0.16564,-0.41586 0,-0.27137 -0.16564,-0.41234 -0.16564,-0.14449 -0.48635,-0.14449 h -0.75066 v 1.11366 z m 0.0458,2.30133 q 0.40881,0 0.61322,-0.17269 0.20793,-0.17269 0.20793,-0.52159 0,-0.34185 -0.20441,-0.51101 -0.2044,-0.17269 -0.61674,-0.17269 h -0.79648 v 1.37798 z m 1.26168,-1.89252 q 0.437,0.12687 0.67665,0.46872 0.23965,0.34185 0.23965,0.83877 0,0.76124 -0.51454,1.13481 -0.51454,0.37357 -1.56476,0.37357 h -2.25199 v -5.26169 h 2.03701 q 1.09604,0 1.58591,0.33128 0.49339,0.33128 0.49339,1.06079 0,0.38414 -0.17974,0.65551 -0.17973,0.26784 -0.52158,0.39824 z"
         style="font-weight:bold;font-family:'Open Sans';-inkscape-font-specification:'Open Sans Bold'"
         id="path311" /><path
         d="m 131.38495,153.08529 v 3.21058 h 0.48634 q 0.83172,0 1.26873,-0.41233 0.44053,-0.41234 0.44053,-1.19824 0,-0.78238 -0.43701,-1.1912 -0.437,-0.40881 -1.27225,-0.40881 z m -1.35684,-1.02555 h 1.43085 q 1.19824,0 1.78326,0.17269 0.58855,0.16916 1.00793,0.57797 0.37005,0.35595 0.54978,0.82115 0.17974,0.4652 0.17974,1.05375 0,0.59559 -0.17974,1.06432 -0.17973,0.4652 -0.54978,0.82114 -0.42291,0.40882 -1.01498,0.5815 -0.59207,0.16917 -1.77621,0.16917 h -1.43085 z"
         style="font-weight:bold;font-family:'Open Sans';-inkscape-font-specification:'Open Sans Bold'"
         id="path313" /><path
         d="m 139.21228,156.36283 h -2.12159 l -0.3348,0.9586 h -1.36388 l 1.9489,-5.26169 h 1.61763 l 1.9489,5.26169 h -1.36388 z m -1.78326,-0.97621 h 1.44141 l -0.71894,-2.0934 z"
         style="font-weight:bold;font-family:'Open Sans';-inkscape-font-specification:'Open Sans Bold'"
         id="path315" /></g></g></svg>
